<?xml version="1.0" encoding="iso-8859-1"?>
<!-- Uploaded to: SVG Repo, www.svgrepo.com, Generator: SVG Repo Mixer Tools -->
<svg height="800px" width="800px" version="1.1" id="Layer_1" xmlns="http://www.w3.org/2000/svg" xmlns:xlink="http://www.w3.org/1999/xlink" 
	 viewBox="0 0 512 512" xml:space="preserve">
<g transform="translate(1)">
	<g>
		<path style="fill:#7383BF;" d="M511,503.467h-12.8c-5.12,0-8.533-3.413-8.533-8.533c0-3.413,1.707-6.827,5.12-7.68
			c1.707-2.56,4.267-5.12,7.68-5.12c5.12,0,8.533,3.413,8.533,8.533V503.467z"/>
		<path style="fill:#7383BF;" d="M464.92,503.467h-8.533c-5.12,0-8.533-3.413-8.533-8.533c0-5.12,3.413-8.533,8.533-8.533h8.533
			c5.12,0,8.533,3.413,8.533,8.533C473.453,500.053,470.04,503.467,464.92,503.467z M423.96,503.467h-8.533
			c-5.12,0-8.533-3.413-8.533-8.533c0-5.12,3.413-8.533,8.533-8.533h8.533c5.12,0,8.533,3.413,8.533,8.533
			C432.493,500.053,429.08,503.467,423.96,503.467z M383,503.467h-8.533c-5.12,0-8.533-3.413-8.533-8.533
			c0-5.12,3.413-8.533,8.533-8.533H383c5.12,0,8.533,3.413,8.533,8.533C391.533,500.053,387.267,503.467,383,503.467z
			 M341.187,503.467h-8.533c-5.12,0-8.533-3.413-8.533-8.533c0-5.12,3.413-8.533,8.533-8.533h8.533c5.12,0,8.533,3.413,8.533,8.533
			C349.72,500.053,346.307,503.467,341.187,503.467z M300.227,503.467h-8.533c-5.12,0-8.533-3.413-8.533-8.533
			c0-5.12,3.413-8.533,8.533-8.533h8.533c5.12,0,8.533,3.413,8.533,8.533C308.76,500.053,305.347,503.467,300.227,503.467z
			 M259.267,503.467h-8.533c-5.12,0-8.533-3.413-8.533-8.533c0-5.12,3.413-8.533,8.533-8.533h8.533c5.12,0,8.533,3.413,8.533,8.533
			C267.8,500.053,263.533,503.467,259.267,503.467z M218.307,503.467h-8.533c-5.12,0-8.533-3.413-8.533-8.533
			c0-5.12,3.413-8.533,8.533-8.533h8.533c5.12,0,8.533,3.413,8.533,8.533C226.84,500.053,222.573,503.467,218.307,503.467z
			 M176.493,503.467h-8.533c-5.12,0-8.533-3.413-8.533-8.533c0-5.12,3.413-8.533,8.533-8.533h8.533c5.12,0,8.533,3.413,8.533,8.533
			C185.027,500.053,181.613,503.467,176.493,503.467z M135.533,503.467H127c-5.12,0-8.533-3.413-8.533-8.533
			c0-5.12,3.413-8.533,8.533-8.533h8.533c5.12,0,8.533,3.413,8.533,8.533C144.067,500.053,139.8,503.467,135.533,503.467z
			 M94.573,503.467H86.04c-5.12,0-8.533-3.413-8.533-8.533c0-5.12,3.413-8.533,8.533-8.533h8.533c5.12,0,8.533,3.413,8.533,8.533
			C103.107,500.053,98.84,503.467,94.573,503.467z M52.76,503.467h-8.533c-5.12,0-8.533-3.413-8.533-8.533
			c0-5.12,3.413-8.533,8.533-8.533h8.533c5.12,0,8.533,3.413,8.533,8.533C61.293,500.053,57.88,503.467,52.76,503.467z"/>
		<path style="fill:#7383BF;" d="M11.8,503.467H-1v-12.8c0-5.12,3.413-8.533,8.533-8.533c3.413,0,6.827,1.707,7.68,5.12
			c2.56,1.707,5.12,4.267,5.12,7.68C20.333,500.053,16.92,503.467,11.8,503.467z"/>
		<path style="fill:#7383BF;" d="M7.533,464.213C2.413,464.213-1,460.8-1,455.68v-8.533c0-5.12,3.413-8.533,8.533-8.533
			s8.533,3.413,8.533,8.533v8.533C16.067,460.8,12.653,464.213,7.533,464.213z M7.533,420.693c-5.12,0-8.533-3.413-8.533-8.533
			v-8.533c0-5.12,3.413-8.533,8.533-8.533s8.533,3.413,8.533,8.533v8.533C16.067,417.28,12.653,420.693,7.533,420.693z
			 M7.533,377.173c-5.12,0-8.533-3.413-8.533-8.533v-8.533c0-5.12,3.413-8.533,8.533-8.533s8.533,3.413,8.533,8.533v8.533
			C16.067,373.76,12.653,377.173,7.533,377.173z M7.533,333.653c-5.12,0-8.533-3.413-8.533-8.533v-8.533
			c0-5.12,3.413-8.533,8.533-8.533s8.533,3.413,8.533,8.533v8.533C16.067,330.24,12.653,333.653,7.533,333.653z M7.533,290.987
			c-5.12,0-8.533-3.413-8.533-8.533v-8.533c0-5.12,3.413-8.533,8.533-8.533s8.533,3.413,8.533,8.533v8.533
			C16.067,286.72,12.653,290.987,7.533,290.987z M7.533,247.467c-5.12,0-8.533-3.413-8.533-8.533V230.4
			c0-5.12,3.413-8.533,8.533-8.533s8.533,3.413,8.533,8.533v8.533C16.067,243.2,12.653,247.467,7.533,247.467z M7.533,203.947
			c-5.12,0-8.533-3.413-8.533-8.533v-8.533c0-5.12,3.413-8.533,8.533-8.533s8.533,3.413,8.533,8.533v8.533
			C16.067,199.68,12.653,203.947,7.533,203.947z M7.533,160.427c-5.12,0-8.533-3.413-8.533-8.533v-8.533
			c0-5.12,3.413-8.533,8.533-8.533s8.533,3.413,8.533,8.533v8.533C16.067,156.16,12.653,160.427,7.533,160.427z M7.533,116.907
			c-5.12,0-8.533-3.413-8.533-8.533V99.84c0-5.12,3.413-8.533,8.533-8.533s8.533,3.413,8.533,8.533v8.533
			C16.067,112.64,12.653,116.907,7.533,116.907z M7.533,73.387C2.413,73.387-1,69.973-1,64.853V56.32
			c0-5.12,3.413-8.533,8.533-8.533s8.533,3.413,8.533,8.533v8.533C16.067,69.12,12.653,73.387,7.533,73.387z"/>
		<path style="fill:#7383BF;" d="M7.533,29.867C2.413,29.867-1,26.453-1,21.333v-12.8h12.8c5.12,0,8.533,3.413,8.533,8.533
			c0,3.413-1.707,6.827-5.12,7.68C14.36,28.16,10.947,29.867,7.533,29.867z"/>
		<path style="fill:#7383BF;" d="M464.92,25.6h-8.533c-5.12,0-8.533-3.413-8.533-8.533s3.413-8.533,8.533-8.533h8.533
			c5.12,0,8.533,3.413,8.533,8.533S470.04,25.6,464.92,25.6z M423.96,25.6h-8.533c-5.12,0-8.533-3.413-8.533-8.533
			s3.413-8.533,8.533-8.533h8.533c5.12,0,8.533,3.413,8.533,8.533S429.08,25.6,423.96,25.6z M383,25.6h-8.533
			c-5.12,0-8.533-3.413-8.533-8.533s3.413-8.533,8.533-8.533H383c5.12,0,8.533,3.413,8.533,8.533S387.267,25.6,383,25.6z
			 M341.187,25.6h-8.533c-5.12,0-8.533-3.413-8.533-8.533s3.413-8.533,8.533-8.533h8.533c5.12,0,8.533,3.413,8.533,8.533
			S346.307,25.6,341.187,25.6z M300.227,25.6h-8.533c-5.12,0-8.533-3.413-8.533-8.533s3.413-8.533,8.533-8.533h8.533
			c5.12,0,8.533,3.413,8.533,8.533S305.347,25.6,300.227,25.6z M259.267,25.6h-8.533c-5.12,0-8.533-3.413-8.533-8.533
			s3.413-8.533,8.533-8.533h8.533c5.12,0,8.533,3.413,8.533,8.533S263.533,25.6,259.267,25.6z M218.307,25.6h-8.533
			c-5.12,0-8.533-3.413-8.533-8.533s3.413-8.533,8.533-8.533h8.533c5.12,0,8.533,3.413,8.533,8.533S222.573,25.6,218.307,25.6z
			 M176.493,25.6h-8.533c-5.12,0-8.533-3.413-8.533-8.533s3.413-8.533,8.533-8.533h8.533c5.12,0,8.533,3.413,8.533,8.533
			S181.613,25.6,176.493,25.6z M135.533,25.6H127c-5.12,0-8.533-3.413-8.533-8.533S121.88,8.533,127,8.533h8.533
			c5.12,0,8.533,3.413,8.533,8.533S139.8,25.6,135.533,25.6z M94.573,25.6H86.04c-5.12,0-8.533-3.413-8.533-8.533
			s3.413-8.533,8.533-8.533h8.533c5.12,0,8.533,3.413,8.533,8.533S98.84,25.6,94.573,25.6z M52.76,25.6h-8.533
			c-5.12,0-8.533-3.413-8.533-8.533s3.413-8.533,8.533-8.533h8.533c5.12,0,8.533,3.413,8.533,8.533S57.88,25.6,52.76,25.6z"/>
		<path style="fill:#7383BF;" d="M502.467,29.867c-3.413,0-6.827-1.707-7.68-5.12c-2.56-1.707-5.12-4.267-5.12-7.68
			c0-5.12,3.413-8.533,8.533-8.533H511v12.8C511,26.453,507.587,29.867,502.467,29.867z"/>
		<path style="fill:#7383BF;" d="M502.467,464.213c-5.12,0-8.533-3.413-8.533-8.533v-8.533c0-5.12,3.413-8.533,8.533-8.533
			c5.12,0,8.533,3.413,8.533,8.533v8.533C511,460.8,507.587,464.213,502.467,464.213z M502.467,420.693
			c-5.12,0-8.533-3.413-8.533-8.533v-8.533c0-5.12,3.413-8.533,8.533-8.533c5.12,0,8.533,3.413,8.533,8.533v8.533
			C511,417.28,507.587,420.693,502.467,420.693z M502.467,377.173c-5.12,0-8.533-3.413-8.533-8.533v-8.533
			c0-5.12,3.413-8.533,8.533-8.533c5.12,0,8.533,3.413,8.533,8.533v8.533C511,373.76,507.587,377.173,502.467,377.173z
			 M502.467,334.507c-5.12,0-8.533-3.413-8.533-8.533v-8.533c0-5.12,3.413-8.533,8.533-8.533c5.12,0,8.533,3.413,8.533,8.533v8.533
			C511,330.24,507.587,334.507,502.467,334.507z M502.467,290.987c-5.12,0-8.533-3.413-8.533-8.533v-8.533
			c0-5.12,3.413-8.533,8.533-8.533c5.12,0,8.533,3.413,8.533,8.533v8.533C511,286.72,507.587,290.987,502.467,290.987z
			 M502.467,247.467c-5.12,0-8.533-3.413-8.533-8.533V230.4c0-5.12,3.413-8.533,8.533-8.533c5.12,0,8.533,3.413,8.533,8.533v8.533
			C511,243.2,507.587,247.467,502.467,247.467z M502.467,203.947c-5.12,0-8.533-3.413-8.533-8.533v-8.533
			c0-5.12,3.413-8.533,8.533-8.533c5.12,0,8.533,3.413,8.533,8.533v8.533C511,199.68,507.587,203.947,502.467,203.947z
			 M502.467,160.427c-5.12,0-8.533-3.413-8.533-8.533v-8.533c0-5.12,3.413-8.533,8.533-8.533c5.12,0,8.533,3.413,8.533,8.533v8.533
			C511,156.16,507.587,160.427,502.467,160.427z M502.467,116.907c-5.12,0-8.533-3.413-8.533-8.533V99.84
			c0-5.12,3.413-8.533,8.533-8.533c5.12,0,8.533,3.413,8.533,8.533v8.533C511,112.64,507.587,116.907,502.467,116.907z
			 M502.467,73.387c-5.12,0-8.533-3.413-8.533-8.533V56.32c0-5.12,3.413-8.533,8.533-8.533c5.12,0,8.533,3.413,8.533,8.533v8.533
			C511,69.12,507.587,73.387,502.467,73.387z"/>
	</g>
	<g>
		<path style="fill:#231317;" d="M511,512h-12.8c-5.12,0-8.533-3.413-8.533-8.533c0-3.413,1.707-6.827,5.12-7.68
			c1.707-2.56,4.267-5.12,7.68-5.12c5.12,0,8.533,3.413,8.533,8.533V512z"/>
		<path style="fill:#231317;" d="M464.92,512h-8.533c-5.12,0-8.533-3.413-8.533-8.533c0-5.12,3.413-8.533,8.533-8.533h8.533
			c5.12,0,8.533,3.413,8.533,8.533C473.453,508.587,470.04,512,464.92,512z M423.96,512h-8.533c-5.12,0-8.533-3.413-8.533-8.533
			c0-5.12,3.413-8.533,8.533-8.533h8.533c5.12,0,8.533,3.413,8.533,8.533C432.493,508.587,429.08,512,423.96,512z M383,512h-8.533
			c-5.12,0-8.533-3.413-8.533-8.533c0-5.12,3.413-8.533,8.533-8.533H383c5.12,0,8.533,3.413,8.533,8.533
			C391.533,508.587,387.267,512,383,512z M341.187,512h-8.533c-5.12,0-8.533-3.413-8.533-8.533c0-5.12,3.413-8.533,8.533-8.533
			h8.533c5.12,0,8.533,3.413,8.533,8.533C349.72,508.587,346.307,512,341.187,512z M300.227,512h-8.533
			c-5.12,0-8.533-3.413-8.533-8.533c0-5.12,3.413-8.533,8.533-8.533h8.533c5.12,0,8.533,3.413,8.533,8.533
			C308.76,508.587,305.347,512,300.227,512z M259.267,512h-8.533c-5.12,0-8.533-3.413-8.533-8.533c0-5.12,3.413-8.533,8.533-8.533
			h8.533c5.12,0,8.533,3.413,8.533,8.533C267.8,508.587,263.533,512,259.267,512z M218.307,512h-8.533
			c-5.12,0-8.533-3.413-8.533-8.533c0-5.12,3.413-8.533,8.533-8.533h8.533c5.12,0,8.533,3.413,8.533,8.533
			C226.84,508.587,222.573,512,218.307,512z M176.493,512h-8.533c-5.12,0-8.533-3.413-8.533-8.533c0-5.12,3.413-8.533,8.533-8.533
			h8.533c5.12,0,8.533,3.413,8.533,8.533C185.027,508.587,181.613,512,176.493,512z M135.533,512H127
			c-5.12,0-8.533-3.413-8.533-8.533c0-5.12,3.413-8.533,8.533-8.533h8.533c5.12,0,8.533,3.413,8.533,8.533
			C144.067,508.587,139.8,512,135.533,512z M94.573,512H86.04c-5.12,0-8.533-3.413-8.533-8.533c0-5.12,3.413-8.533,8.533-8.533
			h8.533c5.12,0,8.533,3.413,8.533,8.533C103.107,508.587,98.84,512,94.573,512z M52.76,512h-8.533c-5.12,0-8.533-3.413-8.533-8.533
			c0-5.12,3.413-8.533,8.533-8.533h8.533c5.12,0,8.533,3.413,8.533,8.533C61.293,508.587,57.88,512,52.76,512z"/>
		<path style="fill:#231317;" d="M11.8,512H-1v-12.8c0-5.12,3.413-8.533,8.533-8.533c3.413,0,6.827,1.707,7.68,5.12
			c2.56,1.707,5.12,4.267,5.12,7.68C20.333,508.587,16.92,512,11.8,512z"/>
		<path style="fill:#231317;" d="M7.533,474.453c-5.12,0-8.533-3.413-8.533-8.533v-8.533c0-5.12,3.413-8.533,8.533-8.533
			s8.533,3.413,8.533,8.533v8.533C16.067,471.04,12.653,474.453,7.533,474.453z M7.533,433.493c-5.12,0-8.533-3.413-8.533-8.533
			v-8.533c0-5.12,3.413-8.533,8.533-8.533s8.533,3.413,8.533,8.533v8.533C16.067,430.08,12.653,433.493,7.533,433.493z
			 M7.533,392.533C2.413,392.533-1,389.12-1,384v-8.533c0-5.12,3.413-8.533,8.533-8.533s8.533,3.413,8.533,8.533V384
			C16.067,388.267,12.653,392.533,7.533,392.533z M7.533,350.72c-5.12,0-8.533-3.413-8.533-8.533v-8.533
			c0-5.12,3.413-8.533,8.533-8.533s8.533,3.413,8.533,8.533v8.533C16.067,347.307,12.653,350.72,7.533,350.72z M7.533,309.76
			c-5.12,0-8.533-3.413-8.533-8.533v-8.533c0-5.12,3.413-8.533,8.533-8.533s8.533,3.413,8.533,8.533v8.533
			C16.067,306.347,12.653,309.76,7.533,309.76z M7.533,268.8c-5.12,0-8.533-3.413-8.533-8.533v-8.533
			c0-5.12,3.413-8.533,8.533-8.533s8.533,3.413,8.533,8.533v8.533C16.067,264.533,12.653,268.8,7.533,268.8z M7.533,227.84
			c-5.12,0-8.533-3.413-8.533-8.533v-8.533c0-5.12,3.413-8.533,8.533-8.533s8.533,3.413,8.533,8.533v8.533
			C16.067,223.573,12.653,227.84,7.533,227.84z M7.533,186.027c-5.12,0-8.533-3.413-8.533-8.533v-8.533
			c0-5.12,3.413-8.533,8.533-8.533s8.533,3.413,8.533,8.533v8.533C16.067,182.613,12.653,186.027,7.533,186.027z M7.533,145.067
			c-5.12,0-8.533-3.413-8.533-8.533V128c0-5.12,3.413-8.533,8.533-8.533s8.533,3.413,8.533,8.533v8.533
			C16.067,140.8,12.653,145.067,7.533,145.067z M7.533,104.107c-5.12,0-8.533-3.413-8.533-8.533V87.04
			c0-5.12,3.413-8.533,8.533-8.533s8.533,3.413,8.533,8.533v8.533C16.067,99.84,12.653,104.107,7.533,104.107z M7.533,62.293
			C2.413,62.293-1,58.88-1,53.76v-8.533c0-5.12,3.413-8.533,8.533-8.533s8.533,3.413,8.533,8.533v8.533
			C16.067,58.88,12.653,62.293,7.533,62.293z"/>
		<path style="fill:#231317;" d="M7.533,21.333C2.413,21.333-1,17.92-1,12.8V0h12.8c5.12,0,8.533,3.413,8.533,8.533
			c0,3.413-1.707,6.827-5.12,7.68C14.36,19.627,10.947,21.333,7.533,21.333z"/>
		<path style="fill:#231317;" d="M464.92,17.067h-8.533c-5.12,0-8.533-3.413-8.533-8.533S451.267,0,456.387,0h8.533
			c5.12,0,8.533,3.413,8.533,8.533S470.04,17.067,464.92,17.067z M423.96,17.067h-8.533c-5.12,0-8.533-3.413-8.533-8.533
			S410.307,0,415.427,0h8.533c5.12,0,8.533,3.413,8.533,8.533S429.08,17.067,423.96,17.067z M383,17.067h-8.533
			c-5.12,0-8.533-3.413-8.533-8.533S369.347,0,374.467,0H383c5.12,0,8.533,3.413,8.533,8.533S387.267,17.067,383,17.067z
			 M341.187,17.067h-8.533c-5.12,0-8.533-3.413-8.533-8.533S327.533,0,332.653,0h8.533c5.12,0,8.533,3.413,8.533,8.533
			S346.307,17.067,341.187,17.067z M300.227,17.067h-8.533c-5.12,0-8.533-3.413-8.533-8.533S286.573,0,291.693,0h8.533
			c5.12,0,8.533,3.413,8.533,8.533S305.347,17.067,300.227,17.067z M259.267,17.067h-8.533c-5.12,0-8.533-3.413-8.533-8.533
			S245.613,0,250.733,0h8.533c5.12,0,8.533,3.413,8.533,8.533S263.533,17.067,259.267,17.067z M218.307,17.067h-8.533
			c-5.12,0-8.533-3.413-8.533-8.533S204.653,0,209.773,0h8.533c5.12,0,8.533,3.413,8.533,8.533S222.573,17.067,218.307,17.067z
			 M176.493,17.067h-8.533c-5.12,0-8.533-3.413-8.533-8.533S162.84,0,167.96,0h8.533c5.12,0,8.533,3.413,8.533,8.533
			S181.613,17.067,176.493,17.067z M135.533,17.067H127c-5.12,0-8.533-3.413-8.533-8.533S121.88,0,127,0h8.533
			c5.12,0,8.533,3.413,8.533,8.533S139.8,17.067,135.533,17.067z M94.573,17.067H86.04c-5.12,0-8.533-3.413-8.533-8.533
			S80.92,0,86.04,0h8.533c5.12,0,8.533,3.413,8.533,8.533S98.84,17.067,94.573,17.067z M52.76,17.067h-8.533
			c-5.12,0-8.533-3.413-8.533-8.533S39.107,0,44.227,0h8.533c5.12,0,8.533,3.413,8.533,8.533S57.88,17.067,52.76,17.067z"/>
		<path style="fill:#231317;" d="M502.467,21.333c-3.413,0-6.827-1.707-7.68-5.12c-2.56-1.707-5.12-4.267-5.12-7.68
			c0-5.12,3.413-8.533,8.533-8.533H511v12.8C511,17.92,507.587,21.333,502.467,21.333z"/>
		<path style="fill:#231317;" d="M502.467,474.453c-5.12,0-8.533-3.413-8.533-8.533v-8.533c0-5.12,3.413-8.533,8.533-8.533
			c5.12,0,8.533,3.413,8.533,8.533v8.533C511,471.04,507.587,474.453,502.467,474.453z M502.467,433.493
			c-5.12,0-8.533-3.413-8.533-8.533v-8.533c0-5.12,3.413-8.533,8.533-8.533c5.12,0,8.533,3.413,8.533,8.533v8.533
			C511,430.08,507.587,433.493,502.467,433.493z M502.467,392.533c-5.12,0-8.533-3.413-8.533-8.533v-8.533
			c0-5.12,3.413-8.533,8.533-8.533c5.12,0,8.533,3.413,8.533,8.533V384C511,388.267,507.587,392.533,502.467,392.533z
			 M502.467,350.72c-5.12,0-8.533-3.413-8.533-8.533v-8.533c0-5.12,3.413-8.533,8.533-8.533c5.12,0,8.533,3.413,8.533,8.533v8.533
			C511,347.307,507.587,350.72,502.467,350.72z M502.467,309.76c-5.12,0-8.533-3.413-8.533-8.533v-8.533
			c0-5.12,3.413-8.533,8.533-8.533c5.12,0,8.533,3.413,8.533,8.533v8.533C511,306.347,507.587,309.76,502.467,309.76z
			 M502.467,268.8c-5.12,0-8.533-3.413-8.533-8.533v-8.533c0-5.12,3.413-8.533,8.533-8.533c5.12,0,8.533,3.413,8.533,8.533v8.533
			C511,264.533,507.587,268.8,502.467,268.8z M502.467,226.987c-5.12,0-8.533-3.413-8.533-8.533v-8.533
			c0-5.12,3.413-8.533,8.533-8.533c5.12,0,8.533,3.413,8.533,8.533v8.533C511,223.573,507.587,226.987,502.467,226.987z
			 M502.467,186.027c-5.12,0-8.533-3.413-8.533-8.533v-8.533c0-5.12,3.413-8.533,8.533-8.533c5.12,0,8.533,3.413,8.533,8.533v8.533
			C511,182.613,507.587,186.027,502.467,186.027z M502.467,145.067c-5.12,0-8.533-3.413-8.533-8.533V128
			c0-5.12,3.413-8.533,8.533-8.533c5.12,0,8.533,3.413,8.533,8.533v8.533C511,140.8,507.587,145.067,502.467,145.067z
			 M502.467,104.107c-5.12,0-8.533-3.413-8.533-8.533V87.04c0-5.12,3.413-8.533,8.533-8.533c5.12,0,8.533,3.413,8.533,8.533v8.533
			C511,99.84,507.587,104.107,502.467,104.107z M502.467,62.293c-5.12,0-8.533-3.413-8.533-8.533v-8.533
			c0-5.12,3.413-8.533,8.533-8.533c5.12,0,8.533,3.413,8.533,8.533v8.533C511,58.88,507.587,62.293,502.467,62.293z"/>
	</g>
</g>
</svg>